<?xml version="1.0" encoding="UTF-8" standalone="no"?>
<!-- Created with Inkscape (http://www.inkscape.org/) -->

<svg
   xmlns:dc="http://purl.org/dc/elements/1.1/"
   xmlns:cc="http://creativecommons.org/ns#"
   xmlns:rdf="http://www.w3.org/1999/02/22-rdf-syntax-ns#"
   xmlns:svg="http://www.w3.org/2000/svg"
   xmlns="http://www.w3.org/2000/svg"
   xmlns:sodipodi="http://sodipodi.sourceforge.net/DTD/sodipodi-0.dtd"
   xmlns:inkscape="http://www.inkscape.org/namespaces/inkscape"
   width="54mm"
   height="54mm"
   viewBox="0 0 54 54"
   version="1.1"
   id="svg8"
   inkscape:version="0.92.3 (2405546, 2018-03-11)"
   sodipodi:docname="antifasching_all_path.svg">
  <defs
     id="defs2" />
  <sodipodi:namedview
     id="base"
     pagecolor="#ffffff"
     bordercolor="#666666"
     borderopacity="1.0"
     inkscape:pageopacity="0.0"
     inkscape:pageshadow="2"
     inkscape:zoom="3.959798"
     inkscape:cx="97.559935"
     inkscape:cy="96.164324"
     inkscape:document-units="mm"
     inkscape:current-layer="layer1"
     showgrid="false"
     showguides="false"
     inkscape:window-width="1853"
     inkscape:window-height="1025"
     inkscape:window-x="67"
     inkscape:window-y="27"
     inkscape:window-maximized="1" />
  <metadata
     id="metadata5">
    <rdf:RDF>
      <cc:Work
         rdf:about="">
        <dc:format>image/svg+xml</dc:format>
        <dc:type
           rdf:resource="http://purl.org/dc/dcmitype/StillImage" />
        <dc:title />
        <cc:license
           rdf:resource="http://creativecommons.org/publicdomain/zero/1.0/" />
      </cc:Work>
      <cc:License
         rdf:about="http://creativecommons.org/publicdomain/zero/1.0/">
        <cc:permits
           rdf:resource="http://creativecommons.org/ns#Reproduction" />
        <cc:permits
           rdf:resource="http://creativecommons.org/ns#Distribution" />
        <cc:permits
           rdf:resource="http://creativecommons.org/ns#DerivativeWorks" />
      </cc:License>
    </rdf:RDF>
  </metadata>
  <g
     inkscape:label="Layer 1"
     inkscape:groupmode="layer"
     id="layer1"
     transform="translate(0,-243)">
    <path
       inkscape:connector-curvature="0"
       id="ringschwarz"
       style="fill:#201c1c;fill-opacity:1;fill-rule:nonzero;stroke:none;stroke-width:0.01366824"
       d="M 26.999658,294.5 C 13.501877,294.5 2.5,283.4983 2.5,270.00032 2.5,256.50226 13.501877,245.5 26.999658,245.5 40.49774,245.5 51.5,256.50226 51.5,270.00032 51.5,283.4983 40.49774,294.5 26.999658,294.5 Z m 0,-5.56958 c 10.488196,0 18.930803,-8.44205 18.930803,-18.9301 0,-10.48818 -8.442607,-18.93078 -18.930803,-18.93078 -10.487786,0 -18.9300641,8.44274 -18.9300641,18.93078 0,10.48805 8.4422781,18.9301 18.9300641,18.9301 z" />
    <path
       inkscape:connector-curvature="0"
       id="flaggegrau"
       style="fill:#cccccc;fill-opacity:1;fill-rule:nonzero;stroke:none;stroke-width:0.01394719"
       d="m 34.695863,287.06225 9.152013,-25.32799 -0.740736,-0.43571 c -2.222904,-2.00491 -3.181914,-3.26894 -5.535504,-4.18416 -3.620274,-1.40796 -6.62478,1.35107 -9.719385,2.17925 -4.754879,1.2724 -9.13179,0.93976 -13.141554,-1.71885 -0.430843,-0.28578 -0.578809,-0.56625 -0.915285,-0.95901 -2.833025,3.1384 -5.0216475,7.17792 -5.4440384,11.84813 -0.012371,0.13641 0.021297,0.21339 0.043529,0.34854 0.9589258,0.78453 7.8644354,7.26648 17.4966514,3.8232 3.895732,-1.39248 6.494234,0.17434 9.850349,2.26642 0.546033,0.34045 0.51256,0.33515 0.828045,0.56653 l -4.140644,12.55252 1.089834,-0.30509 1.176725,-0.65378" />
    <path
       inkscape:connector-curvature="0"
       id="flaggeschwarz"
       style="fill:#201c1c;fill-opacity:1;fill-rule:nonzero;stroke:none;stroke-width:0.01394719"
       d="m 31.688568,273.63804 -5.461305,15.08492 c -0.2696,0.0111 -0.422879,0.013 -0.691642,-0.0116 -0.478947,-0.044 -0.751336,-0.1035 -1.205875,-0.26151 l 2.782327,-8.2304 -0.435989,-0.30516 c -1.612576,-0.61005 -2.340898,-1.12958 -4.489186,-0.74088 -4.576355,0.82805 -10.560066,-1.31061 -12.7980899,-5.99003 -0.4793931,-1.00252 -0.7459102,-1.46292 -0.9066795,-2.48009 -0.066193,-0.41883 -0.087561,-0.65984 -0.087226,-1.08397 4.4012064,3.64384 8.8517584,5.48821 14.9253454,4.45473 2.853736,-0.48564 4.673009,-1.97813 7.365656,-0.91536 0.403213,0.15928 0.626926,0.26347 1.002664,0.47937" />
    <path
       inkscape:connector-curvature="0"
       id="path109"
       style="fill:#75bdff;fill-opacity:1;fill-rule:nonzero;stroke:none;stroke-width:0.01394719"
       d="m 28.892433,269.01483 c 0.313115,0.31325 0.313115,0.82093 0,1.13418 -0.313254,0.31312 -0.820932,0.31312 -1.134186,0 -0.313115,-0.31325 -0.313115,-0.82093 0,-1.13418 0.313254,-0.31312 0.820932,-0.31312 1.134186,0" />
    <path
       inkscape:connector-curvature="0"
       id="path111"
       style="fill:#00ffff;fill-opacity:1;fill-rule:nonzero;stroke:none;stroke-width:0.01394719"
       d="m 32.658177,265.6675 c 0.313115,0.31326 0.313115,0.82093 0,1.13419 -0.313254,0.31311 -0.820932,0.31311 -1.134186,0 -0.313115,-0.31326 -0.313115,-0.82093 0,-1.13419 0.313254,-0.31311 0.820932,-0.31311 1.134186,0" />
    <path
       inkscape:connector-curvature="0"
       id="path113"
       style="fill:#ff0000;fill-opacity:1;fill-rule:nonzero;stroke:none;stroke-width:0.01394719"
       d="m 30.287153,260.92546 c 0.313115,0.31326 0.313115,0.82093 0,1.13419 -0.313254,0.31311 -0.820932,0.31311 -1.134186,0 -0.313115,-0.31326 -0.313115,-0.82093 0,-1.13419 0.313254,-0.31311 0.820932,-0.31311 1.134186,0" />
    <path
       inkscape:connector-curvature="0"
       id="path115"
       style="fill:#ff00ff;fill-opacity:1;fill-rule:nonzero;stroke:none;stroke-width:0.01394719"
       d="m 23.871441,269.71219 c 0.313115,0.31325 0.313115,0.82093 0,1.13418 -0.313254,0.31311 -0.820932,0.31311 -1.134186,0 -0.313115,-0.31325 -0.313115,-0.82093 0,-1.13418 0.313254,-0.31312 0.820932,-0.31312 1.134186,0" />
    <path
       inkscape:connector-curvature="0"
       id="path117"
       style="fill:#81ff7c;fill-opacity:1;fill-rule:nonzero;stroke:none;stroke-width:0.01394719"
       d="m 24.917481,261.9715 c 0.313115,0.31325 0.313115,0.82093 0,1.13418 -0.313254,0.31312 -0.820932,0.31312 -1.134186,0 -0.313115,-0.31325 -0.313115,-0.82093 0,-1.13418 0.313254,-0.31311 0.820932,-0.31311 1.134186,0" />
    <path
       inkscape:connector-curvature="0"
       id="path119"
       style="fill:#ffff35;fill-opacity:1;fill-rule:nonzero;stroke:none;stroke-width:0.01394719"
       d="m 35.238409,260.92546 c 0.313115,0.31326 0.313115,0.82093 0,1.13419 -0.313254,0.31311 -0.820932,0.31311 -1.134186,0 -0.313115,-0.31326 -0.313115,-0.82093 0,-1.13419 0.313254,-0.31311 0.820932,-0.31311 1.134186,0" />
    <path
       inkscape:connector-curvature="0"
       id="path121"
       style="fill:#3a3cff;fill-opacity:1;fill-rule:nonzero;stroke:none;stroke-width:0.01394719"
       d="m 36.284449,269.43296 c 0.313115,0.31312 0.313115,0.82093 0,1.13419 -0.313254,0.31311 -0.820932,0.31311 -1.134186,0 -0.313115,-0.31326 -0.313115,-0.82107 0,-1.13419 0.313254,-0.31325 0.820932,-0.31325 1.134186,0" />
    <path
       inkscape:connector-curvature="0"
       id="path123"
       style="fill:#ff7f7f;fill-opacity:1;fill-rule:nonzero;stroke:none;stroke-width:0.01394719"
       d="m 18.641241,261.48335 c 0.313115,0.31325 0.313115,0.82093 0,1.13418 -0.313254,0.31312 -0.820932,0.31312 -1.134186,0 -0.313115,-0.31325 -0.313115,-0.82093 0,-1.13418 0.313254,-0.31312 0.820932,-0.31312 1.134186,0" />
    <path
       inkscape:connector-curvature="0"
       id="path125"
       style="fill:#9560d1;fill-opacity:1;fill-rule:nonzero;stroke:none;stroke-width:0.01394719"
       d="m 14.038665,267.89905 c 0.313157,0.31326 0.313157,0.82093 0,1.13419 -0.313212,0.31311 -0.820974,0.31311 -1.134186,0 -0.313157,-0.31326 -0.313157,-0.82093 0,-1.13419 0.313212,-0.31311 0.820974,-0.31311 1.134186,0" />
    <path
       inkscape:connector-curvature="0"
       id="path127"
       style="fill:#f9ce36;fill-opacity:1;fill-rule:nonzero;stroke:none;stroke-width:0.01394719"
       d="m 13.132097,263.01754 c 0.313157,0.31325 0.313157,0.82093 0,1.13418 -0.313212,0.31312 -0.820974,0.31312 -1.134186,0 -0.313157,-0.31325 -0.313157,-0.82093 0,-1.13418 0.313212,-0.31312 0.820974,-0.31312 1.134186,0" />
    <path
       inkscape:connector-curvature="0"
       id="path129"
       style="fill:#bfffff;fill-opacity:1;fill-rule:nonzero;stroke:none;stroke-width:0.01394719"
       d="m 18.850449,270.82796 c 0.313115,0.31325 0.313115,0.82093 0,1.13418 -0.313254,0.31312 -0.820932,0.31312 -1.134186,0 -0.313115,-0.31325 -0.313115,-0.82093 0,-1.13418 0.313254,-0.31311 0.820932,-0.31311 1.134186,0" />
    <path
       inkscape:connector-curvature="0"
       id="path131"
       style="fill:#7e7eff;fill-opacity:1;fill-rule:nonzero;stroke:none;stroke-width:0.01394719"
       d="m 20.803057,265.6675 c 0.313115,0.31326 0.313115,0.82093 0,1.13419 -0.313254,0.31311 -0.820932,0.31311 -1.134186,0 -0.313115,-0.31326 -0.313115,-0.82093 0,-1.13419 0.313254,-0.31311 0.820932,-0.31311 1.134186,0" />
    <path
       inkscape:connector-curvature="0"
       id="path133"
       style="fill:#ff914a;fill-opacity:1;fill-rule:nonzero;stroke:none;stroke-width:0.01394719"
       d="m 27.56717,265.6675 c 0.313115,0.31326 0.313115,0.82093 0,1.13419 -0.313254,0.31311 -0.821071,0.31311 -1.134186,0 -0.313254,-0.31326 -0.313254,-0.82093 0,-1.13419 0.313115,-0.31311 0.820932,-0.31311 1.134186,0" />
    <g
       aria-label="ANTIFASCHING"
       style="font-style:normal;font-weight:normal;font-size:10.58333302px;line-height:1.25;font-family:sans-serif;letter-spacing:0px;word-spacing:0px;fill:#000000;fill-opacity:1;stroke:none;stroke-width:0.26458332"
       id="textfasching"
       transform="translate(0,0.52916667)">
      <path
         d="m 11.216413,256.12312 -0.896723,1.14171 0.374347,0.58534 -0.576465,0.73395 -2.0077862,-3.27271 0.6837139,-0.87051 3.6552533,1.17515 -0.576464,0.73396 z m -1.2790631,0.54703 0.6092351,-0.77568 -1.4304118,-0.49791 z"
         style="font-style:normal;font-variant:normal;font-weight:bold;font-stretch:normal;font-size:4.93888903px;font-family:'DejaVu Sans';-inkscape-font-specification:'DejaVu Sans Bold';fill:#ffffff;fill-opacity:1;stroke-width:0.26458332"
         id="path4965"
         inkscape:connector-curvature="0" />
      <path
         d="m 10.469615,252.54261 0.789454,-0.67236 2.598086,1.03094 -1.601171,-1.88 0.670118,-0.57073 2.33452,2.74106 -0.789454,0.67236 -2.598086,-1.03094 1.601171,1.88 -0.670118,0.57073 z"
         style="font-style:normal;font-variant:normal;font-weight:bold;font-stretch:normal;font-size:4.93888903px;font-family:'DejaVu Sans';-inkscape-font-specification:'DejaVu Sans Bold';fill:#ffffff;fill-opacity:1;stroke-width:0.26458332"
         id="path4967"
         inkscape:connector-curvature="0" />
      <path
         d="m 13.881806,249.77585 2.885045,-1.63943 0.346711,0.61013 -1.037861,0.58977 1.432121,2.52022 -0.807225,0.45871 -1.432121,-2.52022 -1.039958,0.59096 z"
         style="font-style:normal;font-variant:normal;font-weight:bold;font-stretch:normal;font-size:4.93888903px;font-family:'DejaVu Sans';-inkscape-font-specification:'DejaVu Sans Bold';fill:#ffffff;fill-opacity:1;stroke-width:0.26458332"
         id="path4969"
         inkscape:connector-curvature="0" />
      <path
         d="m 17.65454,247.79231 0.859972,-0.34996 1.357123,3.33491 -0.859972,0.34996 z"
         style="font-style:normal;font-variant:normal;font-weight:bold;font-stretch:normal;font-size:4.93888903px;font-family:'DejaVu Sans';-inkscape-font-specification:'DejaVu Sans Bold';fill:#ffffff;fill-opacity:1;stroke-width:0.26458332"
         id="path4971"
         inkscape:connector-curvature="0" />
      <path
         d="m 19.765648,246.98592 2.414332,-0.67017 0.187698,0.6762 -1.519705,0.42184 0.179313,0.64599 1.42908,-0.39668 0.187698,0.6762 -1.42908,0.39668 0.408292,1.47091 -0.894627,0.24833 z"
         style="font-style:normal;font-variant:normal;font-weight:bold;font-stretch:normal;font-size:4.93888903px;font-family:'DejaVu Sans';-inkscape-font-specification:'DejaVu Sans Bold';fill:#ffffff;fill-opacity:1;stroke-width:0.26458332"
         id="path4973"
         inkscape:connector-curvature="0" />
      <path
         d="m 25.550199,248.85183 -1.443614,0.15361 -0.158407,0.67651 -0.928037,0.0987 0.945145,-3.72137 1.100696,-0.11712 1.707075,3.43915 -0.928038,0.0987 z m -1.284084,-0.53514 0.980794,-0.10436 -0.640767,-1.37238 z"
         style="font-style:normal;font-variant:normal;font-weight:bold;font-stretch:normal;font-size:4.93888903px;font-family:'DejaVu Sans';-inkscape-font-specification:'DejaVu Sans Bold';fill:#ffffff;fill-opacity:1;stroke-width:0.26458332"
         id="path4975"
         inkscape:connector-curvature="0" />
      <path
         d="m 30.027747,246.14509 -0.05955,0.75972 q -0.28535,-0.15541 -0.561363,-0.24478 -0.276014,-0.0894 -0.52605,-0.10897 -0.331778,-0.026 -0.497616,0.0529 -0.165838,0.0789 -0.180915,0.27125 -0.01131,0.14426 0.08807,0.23429 0.101969,0.0878 0.378736,0.16757 l 0.388068,0.11025 q 0.589221,0.16713 0.822438,0.43215 0.233217,0.26501 0.197786,0.717 -0.04655,0.59384 -0.42277,0.85704 -0.373627,0.26099 -1.097289,0.20426 -0.341395,-0.0268 -0.680106,-0.11862 -0.338711,-0.0919 -0.672522,-0.24624 l 0.06125,-0.78136 q 0.329476,0.20967 0.641884,0.3285 0.315,0.11661 0.61312,0.13998 0.302928,0.0238 0.471924,-0.0646 0.168996,-0.0883 0.183696,-0.27588 0.01319,-0.16829 -0.09024,-0.26832 -0.101028,-0.0998 -0.422344,-0.1976 l -0.352005,-0.10742 q -0.529493,-0.15761 -0.75974,-0.42965 -0.227843,-0.27186 -0.194297,-0.6998 0.04203,-0.53614 0.410846,-0.7975 0.368819,-0.26137 1.017951,-0.21048 0.295715,0.0232 0.604679,0.0934 0.309153,0.0678 0.636362,0.18293 z"
         style="font-style:normal;font-variant:normal;font-weight:bold;font-stretch:normal;font-size:4.93888903px;font-family:'DejaVu Sans';-inkscape-font-specification:'DejaVu Sans Bold';fill:#ffffff;fill-opacity:1;stroke-width:0.26458332"
         id="path4977"
         inkscape:connector-curvature="0" />
      <path
         d="m 33.613097,250.32256 q -0.281063,0.0628 -0.566438,0.0571 -0.285375,-0.006 -0.576775,-0.0829 -0.869539,-0.23028 -1.249328,-0.84976 -0.379172,-0.62181 -0.158771,-1.45405 0.221018,-0.83457 0.857633,-1.18487 0.637233,-0.35264 1.506772,-0.12236 0.2914,0.0772 0.542202,0.21344 0.250802,0.13628 0.463955,0.32993 l -0.190768,0.72034 q -0.20437,-0.23623 -0.425825,-0.3797 -0.221455,-0.14347 -0.489543,-0.21446 -0.480228,-0.12718 -0.836803,0.10769 -0.356575,0.23487 -0.499804,0.77571 -0.142613,0.5385 0.05098,0.91907 0.19359,0.38057 0.673817,0.50775 0.268089,0.071 0.531525,0.0559 0.263435,-0.0151 0.557942,-0.11917 z"
         style="font-style:normal;font-variant:normal;font-weight:bold;font-stretch:normal;font-size:4.93888903px;font-family:'DejaVu Sans';-inkscape-font-specification:'DejaVu Sans Bold';fill:#ffffff;fill-opacity:1;stroke-width:0.26458332"
         id="path4979"
         inkscape:connector-curvature="0" />
      <path
         d="m 35.875863,247.53978 0.834485,0.40701 -0.601532,1.23331 1.231137,0.60047 0.601533,-1.2333 0.834485,0.40701 -1.578363,3.23607 -0.834485,-0.40701 0.669192,-1.37202 -1.231137,-0.60048 -0.669192,1.37202 -0.834486,-0.40701 z"
         style="font-style:normal;font-variant:normal;font-weight:bold;font-stretch:normal;font-size:4.93888903px;font-family:'DejaVu Sans';-inkscape-font-specification:'DejaVu Sans Bold';fill:#ffffff;fill-opacity:1;stroke-width:0.26458332"
         id="path4981"
         inkscape:connector-curvature="0" />
      <path
         d="m 39.983404,249.75709 0.765354,0.5256 -2.038246,2.96798 -0.765354,-0.5256 z"
         style="font-style:normal;font-variant:normal;font-weight:bold;font-stretch:normal;font-size:4.93888903px;font-family:'DejaVu Sans';-inkscape-font-specification:'DejaVu Sans Bold';fill:#ffffff;fill-opacity:1;stroke-width:0.26458332"
         id="path4983"
         inkscape:connector-curvature="0" />
      <path
         d="m 41.936293,251.12422 0.758198,0.70743 -0.727213,2.6989 1.684658,-1.80557 0.643587,0.60049 -2.456245,2.63253 -0.758199,-0.70742 0.727213,-2.6989 -1.684658,1.80557 -0.643587,-0.60049 z"
         style="font-style:normal;font-variant:normal;font-weight:bold;font-stretch:normal;font-size:4.93888903px;font-family:'DejaVu Sans';-inkscape-font-specification:'DejaVu Sans Bold';fill:#ffffff;fill-opacity:1;stroke-width:0.26458332"
         id="path4985"
         inkscape:connector-curvature="0" />
      <path
         d="m 44.525351,259.14584 q -0.338052,-0.18658 -0.622399,-0.44347 -0.284348,-0.25689 -0.513601,-0.58212 -0.518252,-0.73521 -0.411158,-1.45391 0.109064,-0.72008 0.812742,-1.2161 0.711563,-0.50158 1.428027,-0.35161 0.716465,0.14997 1.25278,0.91081 0.207022,0.2937 0.340792,0.60067 0.13516,0.30894 0.194869,0.62386 l -0.609066,0.42933 q -0.03373,-0.34504 -0.137029,-0.63808 -0.10191,-0.29107 -0.274197,-0.53549 -0.319566,-0.45335 -0.747512,-0.5205 -0.424587,-0.0666 -0.895677,0.2655 -0.467147,0.32929 -0.554688,0.74506 -0.08754,0.41576 0.219521,0.85137 0.08337,0.11827 0.168022,0.20907 0.08802,0.0914 0.176522,0.14996 l 0.571615,-0.40293 -0.326512,-0.4632 0.50854,-0.35847 0.833649,1.18265 z"
         style="font-style:normal;font-variant:normal;font-weight:bold;font-stretch:normal;font-size:4.93888903px;font-family:'DejaVu Sans';-inkscape-font-specification:'DejaVu Sans Bold';fill:#ffffff;fill-opacity:1;stroke-width:0.26458332"
         id="path4987"
         inkscape:connector-curvature="0" />
    </g>
    <g
       aria-label="AKTION"
       style="font-style:normal;font-weight:normal;font-size:10.58333302px;line-height:1.25;font-family:sans-serif;letter-spacing:0px;word-spacing:0px;fill:#000000;fill-opacity:1;stroke:none;stroke-width:0.26458332"
       id="textaktion"
       transform="translate(0,-0.52916667)">
      <path
         d="m 18.908319,291.78778 -1.353781,-0.5243 -0.450531,0.52894 -0.870288,-0.33706 2.543897,-2.87583 1.032202,0.39976 -0.05672,3.83909 -0.870288,-0.33705 z m -0.896646,-1.06361 0.919761,0.35621 0.05858,-1.51346 z"
         style="font-style:normal;font-variant:normal;font-weight:bold;font-stretch:normal;font-size:4.93888903px;line-height:13.22916603px;font-family:'DejaVu Sans';-inkscape-font-specification:'DejaVu Sans Bold';letter-spacing:0.79374999px;fill:#ffffff;fill-opacity:1;stroke-width:0.26458332"
         id="path4951"
         inkscape:connector-curvature="0" />
      <path
         d="m 21.652113,289.5916 0.9127,0.17031 -0.241082,1.292 1.556793,-1.04649 1.05968,0.19773 -2.017241,1.358 1.532235,2.21411 -1.142653,-0.21321 -1.148061,-1.6567 -0.260104,1.39394 -0.9127,-0.17031 z"
         style="font-style:normal;font-variant:normal;font-weight:bold;font-stretch:normal;font-size:4.93888903px;line-height:13.22916603px;font-family:'DejaVu Sans';-inkscape-font-specification:'DejaVu Sans Bold';letter-spacing:0.79374999px;fill:#ffffff;fill-opacity:1;stroke-width:0.26458332"
         id="path4953"
         inkscape:connector-curvature="0" />
      <path
         d="m 25.162472,290.20646 3.318221,0.0252 -0.0053,0.70174 -1.193691,-0.009 -0.02204,2.89862 -0.928427,-0.007 0.02204,-2.89862 -1.196102,-0.009 z"
         style="font-style:normal;font-variant:normal;font-weight:bold;font-stretch:normal;font-size:4.93888903px;line-height:13.22916603px;font-family:'DejaVu Sans';-inkscape-font-specification:'DejaVu Sans Bold';letter-spacing:0.79374999px;fill:#ffffff;fill-opacity:1;stroke-width:0.26458332"
         id="path4955"
         inkscape:connector-curvature="0" />
      <path
         d="m 29.257832,290.10308 0.920786,-0.11907 0.461764,3.57073 -0.920785,0.11908 z"
         style="font-style:normal;font-variant:normal;font-weight:bold;font-stretch:normal;font-size:4.93888903px;line-height:13.22916603px;font-family:'DejaVu Sans';-inkscape-font-specification:'DejaVu Sans Bold';letter-spacing:0.79374999px;fill:#ffffff;fill-opacity:1;stroke-width:0.26458332"
         id="path4957"
         inkscape:connector-curvature="0" />
      <path
         d="m 33.084912,289.96391 q -0.407843,0.11751 -0.545819,0.48353 -0.137977,0.36601 0.0196,0.91289 0.156908,0.54457 0.468486,0.78105 0.311578,0.23648 0.719421,0.11896 0.410161,-0.11818 0.548137,-0.48419 0.137977,-0.36602 -0.01893,-0.91058 -0.157577,-0.54688 -0.469155,-0.78336 -0.311577,-0.23648 -0.721738,-0.1183 z m -0.186287,-0.64653 q 0.834224,-0.24037 1.444497,0.10078 0.610273,0.34116 0.852647,1.18233 0.241707,0.83886 -0.09347,1.45243 -0.335182,0.61358 -1.169406,0.85395 -0.831907,0.2397 -1.444498,-0.10078 -0.610273,-0.34115 -0.851979,-1.18001 -0.242374,-0.84118 0.09281,-1.45475 0.337499,-0.61424 1.169407,-0.85395 z"
         style="font-style:normal;font-variant:normal;font-weight:bold;font-stretch:normal;font-size:4.93888903px;line-height:13.22916603px;font-family:'DejaVu Sans';-inkscape-font-specification:'DejaVu Sans Bold';letter-spacing:0.79374999px;fill:#ffffff;fill-opacity:1;stroke-width:0.26458332"
         id="path4959"
         inkscape:connector-curvature="0" />
      <path
         d="m 35.423999,288.55233 0.920789,-0.47693 2.298523,1.5905 -1.13576,-2.19276 0.7816,-0.40484 1.655947,3.19707 -0.920789,0.47693 -2.298523,-1.5905 1.135759,2.19276 -0.781599,0.40484 z"
         style="font-style:normal;font-variant:normal;font-weight:bold;font-stretch:normal;font-size:4.93888903px;line-height:13.22916603px;font-family:'DejaVu Sans';-inkscape-font-specification:'DejaVu Sans Bold';letter-spacing:0.79374999px;fill:#ffffff;fill-opacity:1;stroke-width:0.26458332"
         id="path4961"
         inkscape:connector-curvature="0" />
    </g>
  </g>
</svg>
