<?xml version="1.0" encoding="UTF-8" standalone="no"?>
<!-- Created with Inkscape (http://www.inkscape.org/) -->

<svg version="1.1" width="100%" height="100%" id="svg2" xml:space="preserve" sodipodi:docname="Antifaxlogo.svg" inkscape:version="1.1.2 (0a00cf5, 2022-02-04)" xmlns:inkscape="http://www.inkscape.org/namespaces/inkscape" xmlns:sodipodi="http://sodipodi.sourceforge.net/DTD/sodipodi-0.dtd" xmlns="http://www.w3.org/2000/svg" xmlns:svg="http://www.w3.org/2000/svg" viewBox="0 0 368 368" preserveAspectRatio="xMidYMid slice"><sodipodi:namedview
     id="namedview32"
     pagecolor="#505050"
     bordercolor="#ffffff"
     borderopacity="1"
     inkscape:pageshadow="0"
     inkscape:pageopacity="0"
     inkscape:pagecheckerboard="1"
     showgrid="false"
     inkscape:zoom="1.6149791"
     inkscape:cx="214.24426"
     inkscape:cy="202.789"
     inkscape:window-width="1920"
     inkscape:window-height="1020"
     inkscape:window-x="0"
     inkscape:window-y="0"
     inkscape:window-maximized="1"
     inkscape:current-layer="text8392" /><defs
     id="defs6"><rect
       x="1.8772616"
       y="-142.99222"
       width="347.45908"
       height="45.53017"
       id="rect21871" /><rect
       x="117.51327"
       y="-129.20213"
       width="564.38597"
       height="59.747594"
       id="rect8394" /></defs><path
     d="M 184.04532,362.4 C 85.292231,362.4 4.8,281.90891 4.8,183.15468 c 0,-98.754615 80.492162,-179.25 179.24532,-179.25 98.75458,0 179.25,80.495415 179.25,179.25 0,98.75421 -80.49549,179.24532 -179.25,179.24532 z m 0,-40.74844 c 76.73347,0 138.50155,-61.76397 138.50155,-138.49688 0,-76.7334 -61.76815,-138.501555 -138.50155,-138.501555 -76.73156,0 -138.496882,61.768185 -138.496882,138.501555 0,76.73288 61.765252,138.49688 138.496882,138.49688 z"
     id="path20"
     style="color:#000000;font-style:normal;font-variant:normal;font-weight:normal;font-stretch:normal;font-size:medium;line-height:normal;font-family:'Bitstream Vera Sans';-inkscape-font-specification:'Bitstream Vera Sans';text-indent:0;text-align:start;text-decoration:none;text-decoration-line:none;letter-spacing:normal;word-spacing:normal;text-transform:none;writing-mode:lr-tb;direction:ltr;text-anchor:start;display:inline;overflow:visible;visibility:visible;fill:#231f20;fill-opacity:1;stroke:none;stroke-width:40.748;marker:none;enable-background:accumulate" /><g
     id="g5197"
     transform="matrix(0.14657613,-0.06464777,-0.06464777,-0.14657613,68.900527,434.45434)"><path
       id="path1190-7"
       style="stroke-width:0.111521"
       d="m 1611.3812,1601.3075 c -18.6576,-0.037 -9.8056,-0.4183 -24.6957,-0.4782 l 0.276,-33.0195 c 15.1906,0.01 14.1421,0.2414 30.9868,0.1931 126.9887,-0.6915 149.9512,-1.1587 155.8172,-4.2033 3.7471,-1.8734 9.1304,-6.5493 11.7178,-10.0622 4.918,-6.5575 4.9206,-7.2645 4.9206,-226.1239 v -219.566 h -98.6813 v -86.6418 c 8.1799,0.021 3.5148,0.7721 15.9578,0.6531 l 61.6241,-0.7082 v -39.83508 -39.83495 h -62.0931 -15.4888 V 908.9553 l -3.8171,-9.55635 c 9.0184,0.0748 4.3557,0.9568 19.7749,0.80931 l 61.6241,-0.69896 v -37.49875 -37.48958 h -62.0931 -62.1025 l -0.4046,20.48313 c -6.2385,-4.2692 -12.8342,-7.93046 -19.6831,-10.77043 l -13.3457,-5.32544 -8.7286,-0.0184 v -4.36885 h -60.9252 -60.9251 l -0.082,4.10212 -42.0885,-0.092 v -4.01015 h -62.1024 -62.0932 l -0.074,3.74342 -41.8676,-0.0919 -78.7317,-0.0643 V 617.15102 l 327.583,0.46908 327.3438,0.69904 12.8951,5.15067 c 26.0067,10.78405 48.4947,33.28131 59.2788,59.28795 l 5.1507,12.88589 v 253.06389 253.06386 l -5.1507,12.8951 c -14.297,34.9171 -46.1543,59.7513 -83.4133,65.1377 l -12.1869,1.6371 -1.1866,138.2589 -1.1681,138.2497 -6.3278,11.0188 c -3.7473,5.8548 -10.5475,14.0644 -15.2314,18.0456 -17.8098,14.5313 -13.5912,14.2932 -190.2623,14.2932 z m -234.0891,-818.25867 61.6333,-0.70822 v -39.83499 -39.83495 h -62.1024 -62.0932 l -0.699,37.49876 c -0.2342,20.38599 6e-4,38.66467 0.469,40.30403 0.9369,2.57612 13.8235,3.04374 62.7923,2.57537 z m 165.1988,0 60.456,-0.70822 v -39.83499 -39.83495 h -60.9252 -60.9251 l -0.699,37.49876 c -0.2342,20.38599 0,38.66467 0.4691,40.30403 0.9367,2.57612 13.5923,3.04374 61.6242,2.57537 z m 165.1895,0 61.6241,-0.70822 v -39.83499 -39.83495 h -62.0931 -62.1025 l -0.699,37.49876 c -0.2343,20.38599 0,38.66467 0.4691,40.30403 0.9366,2.57612 13.8326,3.04374 62.8014,2.57537 z" /><path
       id="path1192-5"
       style="stroke-width:0.111521"
       d="m 1691.7226,1423.2045 v -32.808 h 27.1974 v 16.4086 16.3994 z" /><path
       id="path1194-3"
       style="stroke-width:0.111521"
       d="m 1691.7226,1317.7627 v -32.8078 h 27.1974 v 16.4085 16.3993 z" /><path
       id="path1196-5"
       style="stroke-width:0.111521"
       d="m 1691.7226,1212.3211 v -32.808 h 27.1974 v 16.4086 16.3994 z" /><path
       id="path1198-6"
       style="stroke-width:0.111521"
       d="M 1156.5673,828.07123 950.36539,827.88728 V 594.89275 l 5.61968,-11.72697 c 7.96264,-17.10731 16.16849,-25.77241 32.33907,-33.74615 l 14.29296,-7.25695 h 50.8447 50.8444 l 14.2932,7.25695 c 16.1706,7.96259 24.3651,16.63884 32.3389,33.74615 l 5.629,11.72697 z" /><path
       id="path1200-2"
       style="stroke-width:0.111521"
       d="m 912.87571,827.85969 -79.39392,-0.0735 c 0.0171,-138.88885 2.26503,-141.95458 16.13271,-163.31326 13.12586,-20.62017 35.38274,-37.25091 58.1106,-43.80833 l 5.15061,-1.40724 z" /><g
       id="g2967"
       transform="matrix(1.1152073,0,0,-1.1152073,560.84196,1867.8655)"
       style="fill:#ed1c24;fill-opacity:1"><g
         transform="matrix(0.1,0,0,-0.1,0,511)"
         id="g2965"
         style="fill:#ed1c24;fill-opacity:1"><path
           d="M 5554.9,4829.1 C 5433,4785 4082,3465.5 3993.8,3303.7 c -35.7,-65.1 -42,-138.7 -50.4,-693.4 l -10.5,-619.8 -298.4,-6.3 -300.5,-6.3 v -2971 -2973.1 l 2937.4,4.2 2935.3,6.3 115.6,46.2 c 233.2,96.7 434.9,298.4 531.6,531.6 l 46.2,115.6 v 2269.2 2269.2 l -46.2,115.6 c -128.2,313.1 -413.9,535.8 -748,584.1 l -109.3,14.7 -10.6,1239.7 -10.5,1239.7 -56.7,98.8 c -33.6,52.5 -94.6,126.1 -136.6,161.8 -159.7,130.3 -121.9,128.2 -1706.1,128.2 -1149.3,-2.3 -1458.2,-8.6 -1521.2,-29.6 z m 2977.3,-306.7 c 33.6,-16.8 81.9,-58.8 105.1,-90.3 44.1,-58.8 44.1,-65.1 44.1,-2027.6 V 435.7 H 6464.7 4248 V 1727.9 3020 l 546.3,10.5 c 542.1,10.5 546.3,10.5 653.5,67.2 121.9,65.1 226.9,176.5 283.7,298.4 33.6,75.6 39.9,147.1 39.9,613.5 0,290 6.3,533.7 14.7,542.1 8.4,6.3 615.6,10.5 1348.9,8.4 1138.7,-6.2 1344.6,-10.4 1397.2,-37.7 z M 5529.7,-698.9 v -357.2 h -556.8 -556.8 l -6.3,336.2 c -2.1,182.8 0,346.7 4.2,361.4 8.4,23.1 124,27.3 563.1,23.1 l 552.6,-6.3 z m 1470.8,0 v -357.2 h -546.3 -546.3 l -6.3,336.2 c -2.1,182.8 0,346.7 4.2,361.4 8.4,23.1 121.9,27.3 552.6,23.1 l 542.1,-6.3 z m 1491.7,0 v -357.2 h -556.8 -556.8 l -6.3,336.2 c -2.1,182.8 0,346.7 4.2,361.4 8.4,23.1 124,27.3 563.1,23.1 l 552.6,-6.3 z M 5529.7,-1770.5 v -336.2 h -556.8 -556.8 l -6.3,315.2 c -2.1,172.3 0,325.7 4.2,340.4 8.4,23.1 124,27.3 563.1,23.1 l 552.6,-6.3 z m 1470.8,0 v -336.2 h -546.3 -546.3 l -6.3,315.2 c -2.1,172.3 0,325.7 4.2,340.4 8.4,23.1 121.9,27.3 552.6,23.1 l 542.1,-6.3 z m 1491.7,0 v -336.2 h -556.8 -556.8 l -6.3,315.2 c -2.1,172.3 0,325.7 4.2,340.4 8.4,23.1 124,27.3 563.1,23.1 l 552.6,-6.3 z M 5529.7,-2842.1 v -357.2 h -556.8 -556.8 l -6.3,336.2 c -2.1,182.8 0,346.7 4.2,361.4 8.4,23.1 124,27.3 563.1,23.1 l 552.6,-6.3 z m 1470.8,0 v -357.2 h -546.3 -546.3 l -6.3,336.2 c -2.1,182.8 0,346.7 4.2,361.4 8.4,23.1 121.9,27.3 552.6,23.1 l 542.1,-6.3 z m 1491.7,0 v -357.2 h -556.8 -556.8 l -6.3,336.2 c -2.1,182.8 0,346.7 4.2,361.4 8.4,23.1 124,27.3 563.1,23.1 l 552.6,-6.3 z"
           id="path2953"
           style="fill:#ed1c24;fill-opacity:1" /><path
           d="m 6359.6,3114.6 v -147.1 h 840.4 840.4 v 147.1 147.1 H 7200 6359.6 Z"
           id="path2955"
           style="fill:#ed1c24;fill-opacity:1" /><path
           d="M 4888.8,2169.1 V 2022 h 1575.8 1575.8 v 147.1 147.1 H 6464.7 4888.8 Z"
           id="path2957"
           style="fill:#ed1c24;fill-opacity:1" /><path
           d="m 4888.8,1223.6 v -147.1 h 1575.8 1575.8 v 147.1 147.1 H 6464.7 4888.8 Z"
           id="path2959"
           style="fill:#ed1c24;fill-opacity:1" /><path
           d="m 1489.2,2587.2 c -145,-71.4 -218.5,-149.2 -290,-302.6 l -50.4,-105.1 V -993.1 -4165.8 l 50.4,-105.1 c 71.4,-153.4 145,-231.1 290,-302.6 l 128.2,-65.1 h 455.9 455.9 l 128.2,65.1 c 145,71.4 218.5,149.2 290,302.6 l 50.4,105.1 V -991 2183.8 l -65.1,128.2 c -71.4,145 -149.2,218.5 -302.6,290 -100.8,48.3 -128.2,50.4 -558.9,50.4 h -453.8 z"
           id="path2961"
           style="fill:#ed1c24;fill-opacity:1" /><path
           d="M 676.1,1917 C 457.6,1830.9 249.6,1622.8 155,1391.7 l -46.2,-115.6 -6.3,-2216.7 c -6.3,-2479.3 -12.6,-2361.7 142.9,-2601.2 117.7,-184.9 317.3,-334.1 521.1,-392.9 l 46.2,-12.6 v 2952.1 c 0,1624.2 -6.3,2954.2 -14.7,2952.1 -10.5,0 -63.1,-18.9 -121.9,-39.9 z"
           id="path2963"
           style="fill:#ed1c24;fill-opacity:1" /></g></g></g><path
     d="m 247.9455,344.70765 4.584,-2.33565 -8.1345,-15.96675 0.0615,-0.0317 20.754,10.1262 3.306,-1.6845 -12.219,-23.98125 -4.584,2.3355 8.0565,15.8115 -0.063,0.0317 -20.754,-10.1262 -3.306,1.68405 12.2985,24.1371"
     id="path34"
     style="fill:#ffffff;fill-opacity:1;fill-rule:evenodd;stroke:none;stroke-width:0.15" /><path
     d="m 223.275,352.65762 c 7.503,-1.73202 11.2875,-9.14232 9.588,-16.50882 -1.662,-7.1958 -8.3355,-12.3 -15.8385,-10.56795 -7.503,1.73205 -11.2635,9.24555 -9.603,16.44135 1.701,7.3665 8.3505,12.36745 15.8535,10.63542 z m -5.109,-22.13202 c 4.3995,-1.0155 8.505,2.45445 9.4665,6.61515 0.897,3.8877 -1.236,9.5883 -5.499,10.57275 -4.263,0.9837 -8.6775,-3.20505 -9.576,-7.09275 -0.96,-4.16085 1.209,-9.0798 5.6085,-10.09515 z"
     id="path2830"
     style="fill:#ffffff;fill-opacity:1;fill-rule:evenodd;stroke:none;stroke-width:0.15" /><path
     d="m 197.106,328.92945 -5.1435,0.0897 0.4605,26.38651 5.1435,-0.0902 z"
     id="path2832"
     style="fill:#ffffff;fill-opacity:1;fill-rule:evenodd;stroke:none;stroke-width:0.15" /><path
     d="m 177.252,332.95725 5.2905,0.55605 0.468,-4.45545 -15.6975,-1.65 -0.4695,4.45605 5.292,0.55605 -2.2905,21.78923 5.1165,0.53789 z"
     id="path2834"
     style="fill:#ffffff;fill-opacity:1;fill-rule:evenodd;stroke:none;stroke-width:0.15" /><path
     d="m 143.66955,333.74175 -0.0685,-0.0158 2.50365,-10.84455 -5.0133,-1.15785 -5.9361,25.7139 5.0133,1.15725 2.66895,-11.5605 0.0679,0.0158 5.55,13.45785 6.44655,1.4883 -7.1034,-16.22355 12.4929,-9.61635 -6.1725,-1.425 z"
     id="path2836"
     style="fill:#ffffff;fill-opacity:1;fill-rule:evenodd;stroke:none;stroke-width:0.15" /><path
     d="m 119.19255,335.4885 -0.30525,5.91555 5.05785,2.14695 1.37055,-28.84755 -3.67335,-1.5585 -20.05545,20.91555 4.99335,2.11935 4.17135,-4.275 z m 0.31995,-4.4268 -5.76615,-2.448 6.4206,-7.69275 0.0645,0.0274 z"
     id="path2838"
     style="fill:#ffffff;fill-opacity:1;fill-rule:evenodd;stroke:none;stroke-width:0.15" /><path
     d="M 51.184503,124.4655 C 91.154363,51.110999 183.52259,23.899189 256.87794,63.869509 330.23358,103.83999 357.44729,196.21029 317.4774,269.56484 277.50693,342.92046 185.13421,370.13288 111.77859,330.16241 38.423256,290.1921 11.214065,197.82106 51.184503,124.4655 Z m 30.268238,16.49274 C 50.395214,197.95643 71.273585,268.83688 128.27134,299.89418 185.26946,330.95167 256.15167,310.07022 287.20916,253.0721 318.26591,196.07535 297.3833,125.19522 240.3852,94.137736 183.38745,63.080449 112.50952,83.961442 81.452741,140.95824 Z"
     id="path20-1"
     style="color:#000000;font-style:normal;font-variant:normal;font-weight:normal;font-stretch:normal;font-size:medium;line-height:normal;font-family:'Bitstream Vera Sans';-inkscape-font-specification:'Bitstream Vera Sans';text-indent:0;text-align:start;text-decoration:none;text-decoration-line:none;letter-spacing:normal;word-spacing:normal;text-transform:none;writing-mode:lr-tb;direction:ltr;text-anchor:start;display:inline;overflow:visible;visibility:visible;fill:none;fill-opacity:1;stroke:none;stroke-width:34.4696;marker:none;enable-background:accumulate" /><g
     aria-label="ANTIFAXISTISCHE"
     transform="matrix(1.0024415,0.06955822,-0.06989734,0.99757789,13.430439,-23.044279)"
     id="text8392"
     style="font-weight:bold;font-size:30.6667px;line-height:1.25;font-family:'DejaVu Sans';-inkscape-font-specification:'DejaVu Sans, Bold';letter-spacing:0px;word-spacing:0px;white-space:pre;fill:#ffffff;stroke-width:1.0075"><path
       d="m 56.308603,108.27022 -4.915709,7.55606 2.638297,3.41345 -3.160098,4.85746 -14.223931,-19.13231 3.748025,-5.761181 23.255117,5.250261 -3.160099,4.85746 z m -7.608599,4.08922 3.339743,-5.1336 -9.121433,-2.28986 z"
       id="path32962" /><path
       d="m 49.097309,87.071917 4.344215,-4.75248 16.803367,4.343904 -11.317534,-10.345292 3.68753,-4.034082 16.501053,15.083516 -4.344214,4.75248 -16.803367,-4.343904 11.317534,10.345292 -3.68753,4.034079 z"
       id="path32964" /><path
       d="m 67.31608,67.850784 16.081186,-12.881308 2.724172,3.400891 -5.78502,4.6339 11.252421,14.047664 -4.499459,3.604145 -11.252421,-14.047664 -5.796707,4.643262 z"
       id="path32966" /><path
       d="m 88.001989,52.157533 4.858475,-3.103259 12.034196,18.840789 -4.85848,3.103259 z"
       id="path32968" /><path
       d="m 99.527392,45.063922 13.845548,-7.095848 1.98738,3.877818 -8.7151,4.466491 1.8986,3.704583 8.19539,-4.200141 1.98739,3.877818 -8.19539,4.200141 4.32307,8.435254 -5.13045,2.629356 z"
       id="path32970" /><path
       d="m 136.77045,48.800097 -8.50145,2.997265 0.0127,4.314175 -5.46522,1.926813 0.37606,-23.837455 6.482,-2.285289 15.24288,18.330852 -5.46521,1.926813 z m -8.52487,-1.3925 5.7759,-2.036348 -5.83833,-7.372786 z"
       id="path32972" /><path
       d="m 158.02946,36.171971 9.71571,9.795945 -5.90293,1.100109 -6.5366,-6.550012 -3.69416,8.456685 -5.93237,1.105595 5.53475,-12.638122 -9.33626,-9.394477 5.91765,-1.102852 6.13319,6.183472 3.47931,-7.974921 5.94709,-1.108339 z"
       id="path32974" /><path
       d="m 169.66912,23.702311 5.75108,-0.400018 1.55124,22.302261 -5.75108,0.400018 z"
       id="path32976" /><path
       d="m 199.05213,24.230303 -0.19383,4.727804 q -1.80651,-0.898324 -3.53982,-1.38901 -1.73331,-0.490686 -3.2893,-0.554479 -2.06467,-0.08465 -3.07544,0.443402 -1.01076,0.528049 -1.05983,1.724962 -0.0368,0.897684 0.60064,1.433361 0.65303,0.521329 2.38879,0.95217 l 2.43343,0.594322 q 3.69472,0.900805 5.2031,2.491274 1.50838,1.590469 1.39306,4.403214 -0.1515,3.695467 -2.42505,5.415629 -2.25797,1.705814 -6.76135,1.521183 -2.12452,-0.0871 -4.24744,-0.578774 -2.12292,-0.491673 -4.22989,-1.372342 l 0.19935,-4.862457 q 2.09286,1.224781 4.05881,1.889857 1.98151,0.650728 3.83673,0.726788 1.88514,0.07729 2.91331,-0.509994 1.02818,-0.587282 1.07602,-1.754272 0.0429,-1.047298 -0.62197,-1.644048 -0.64996,-0.596136 -2.66631,-1.128399 l -2.20901,-0.585122 q -3.32191,-0.855547 -4.81349,-2.490287 -1.47662,-1.634127 -1.36743,-4.297257 0.13678,-3.336393 2.36483,-5.043434 2.22805,-1.707041 6.26763,-1.541425 1.84025,0.07545 3.77358,0.439454 1.93394,0.349046 3.99088,0.98788 z"
       id="path32978" /><path
       d="m 206.13712,24.106722 20.25774,3.762501 -0.7957,4.28416 -7.28749,-1.353516 -3.28672,17.696082 -5.66805,-1.052735 3.28672,-17.696082 -7.30221,-1.35625 z"
       id="path32980" /><path
       d="m 231.54543,29.525271 5.5222,1.655386 -6.41946,21.414662 -5.5222,-1.655386 z"
       id="path32982" /><path
       d="m 258.85883,40.406685 -1.85258,4.354041 q -1.37232,-1.47892 -2.82027,-2.550642 -1.44794,-1.071723 -2.88092,-1.68143 -1.90145,-0.809035 -3.03361,-0.672378 -1.13217,0.136658 -1.60118,1.238946 -0.35175,0.826717 0.0552,1.553143 0.42657,0.71851 1.89797,1.735118 l 2.06623,1.416156 q 3.13774,2.148712 3.98651,4.1697 0.84878,2.020989 -0.25339,4.611368 -1.44805,3.403317 -4.18288,4.208731 -2.71519,0.797498 -6.86255,-0.967137 -1.95656,-0.832485 -3.76861,-2.042856 -1.81206,-1.21037 -3.47168,-2.778985 l 1.90533,-4.478049 q 1.52479,1.885523 3.12871,3.202611 1.62355,1.309172 3.3321,2.036131 1.7361,0.738684 2.9055,0.552775 1.16939,-0.185909 1.62668,-1.260641 0.41038,-0.964503 -6.6e-4,-1.757768 -0.39726,-0.787403 -2.09528,-1.998072 l -1.85954,-1.328217 q -2.80501,-1.97459 -3.62242,-4.031052 -0.80362,-2.0506 0.23992,-4.503192 1.30735,-3.072631 3.99498,-3.881854 2.68763,-0.809223 6.40785,0.773672 1.69477,0.721097 3.3746,1.745025 1.6857,1.010149 3.38401,2.334856 z"
       id="path32984" /><path
       d="m 272.01019,71.457121 q -1.78381,-0.124989 -3.47178,-0.665228 -1.68796,-0.540239 -3.28506,-1.516313 -4.76573,-2.912606 -5.92688,-7.272447 -1.15334,-4.372618 1.63433,-8.933924 2.79547,-4.574082 7.205,-5.529376 4.41733,-0.968071 9.18306,1.944535 1.5971,0.976074 2.84779,2.231812 1.25068,1.255738 2.17555,2.786171 l -2.41286,3.948021 q -0.79708,-1.768224 -1.86038,-3.014728 -1.06329,-1.246504 -2.53262,-2.144492 -2.63201,-1.60857 -5.1704,-0.843451 -2.5384,0.765119 -4.34999,3.729329 -1.80378,2.951433 -1.32686,5.55938 0.47692,2.607948 3.10894,4.216518 1.46933,0.897988 3.0636,1.275672 1.59428,0.377684 3.53142,0.2805 z"
       id="path32986" /><path
       d="m 289.83861,58.29713 4.37968,3.748781 -5.5404,6.472832 6.46145,5.53067 5.54041,-6.472832 4.37968,3.748782 -14.53748,16.984074 -4.37968,-3.748781 6.16358,-7.200884 -6.46146,-5.53067 -6.16358,7.200884 -4.37968,-3.748782 z"
       id="path32988" /><path
       d="m 311.38037,77.90625 10.11525,11.820817 -3.31073,2.83305 -6.36707,-7.440629 -3.16283,2.706488 5.98737,6.996922 -3.31074,2.833051 -5.98737,-6.996922 -3.89097,3.329565 6.58124,7.690928 -3.31074,2.83305 -10.32944,-12.071115 z"
       id="path32990" /></g><text
     xml:space="preserve"
     id="text21869"
     style="fill:black;fill-opacity:1;stroke:none;font-family:sans-serif;font-style:normal;font-weight:normal;font-size:40px;line-height:1.25;letter-spacing:0px;word-spacing:0px;white-space:pre;shape-inside:url(#rect21871)" /></svg>
